<svg width="132" height="30" viewBox="0 0 132 30" fill="none" xmlns="http://www.w3.org/2000/svg">
<path d="M30.6526 1.02051H19.7216H18.5361V1.03643C18.0715 1.07143 17.6264 1.23871 17.2532 1.51863C16.9656 1.72978 16.7286 2.00273 16.5596 2.31755C16.3905 2.63237 16.2937 2.98111 16.2762 3.33827C16.2762 3.37694 16.2762 3.41561 16.2762 3.452V12.0737L16.2638 12.0657C16.2513 12.2625 16.2366 12.4581 16.2184 12.6548C16.1776 13.6511 15.2517 14.2402 14.5071 14.802C15.2426 15.4002 16.0518 16.053 16.1912 17.014C16.2275 17.3074 16.2558 17.6016 16.2762 17.8965V25.1444L16.2819 25.9075V25.9621V25.9769C16.2819 26.011 16.2819 26.0451 16.2819 26.0792C16.2819 26.1133 16.2819 26.1475 16.2819 26.1816C16.2819 26.2157 16.2819 26.2544 16.2887 26.2953C16.3063 26.4979 16.3497 26.6974 16.4179 26.889C16.5894 27.3633 16.9026 27.773 17.3148 28.062C17.727 28.351 18.218 28.5054 18.7208 28.5039H30.6526H30.6458H30.6526V1.02051ZM22.5753 9.67403C21.6766 9.67403 20.9626 8.99963 20.9626 8.17511C20.9626 7.35058 21.6811 6.67504 22.5753 6.67504C23.4695 6.67504 24.1869 7.34944 24.1869 8.17511C24.1869 9.00077 23.4605 9.67403 22.5753 9.67403V9.67403Z" fill="white"/>
<path d="M15.0228 28.4527L15.1486 28.4765C15.1486 28.4765 13.4429 28.1228 13.5121 26.2338V26.1872C13.5121 26.1531 13.5121 26.119 13.5121 26.0849C13.5121 26.0507 13.5121 26.0166 13.5121 25.9825C13.5126 25.9776 13.5126 25.9726 13.5121 25.9677V25.9131L13.5053 25.15V17.9022C13.4849 17.6076 13.4577 17.3131 13.4214 17.0196C13.2809 16.0541 12.4728 15.4058 11.7373 14.8076C12.4819 14.2458 13.4078 13.6567 13.4486 12.6605C13.4667 12.4637 13.4815 12.2681 13.4928 12.0714L13.5053 12.0793V3.45765C13.5053 3.41784 13.5053 3.37918 13.5053 3.34392C13.5053 3.328 13.5053 3.31321 13.5053 3.29843C13.4078 1.39463 15.1679 1.02388 15.1679 1.02388L1.48167 1V1.01933H1V28.5027H15.1667V28.4822C15.1146 28.4743 15.0636 28.464 15.0137 28.4527H15.0228Z" fill="white"/>
<path d="M49.8844 15.2861C48.5946 15.2861 46.9932 15.8434 46.0809 17.3571C45.4111 16.0322 44.1247 15.2861 42.4621 15.2861C41.8723 15.2905 41.2909 15.428 40.7612 15.6885C40.2315 15.9489 39.767 16.3257 39.4021 16.7907V15.8479H37.7395V28.5126H39.3987V20.6154C39.3987 18.1737 40.9367 16.8556 42.3828 16.8556C43.2373 16.8556 45.2241 17.1581 45.2241 19.9615V28.5286H46.8833V20.1855C46.8833 17.6949 48.3838 16.8078 49.7892 16.8078C52.4843 16.8078 52.6939 19.1847 52.6939 19.9137V28.4808H54.3497V19.9296H54.3656V19.9137C54.3611 16.4985 51.9493 15.2861 49.8844 15.2861Z" fill="white"/>
<path d="M70.1303 17.9098C68.9335 16.2505 67.0566 15.2861 64.9373 15.2861C63.1351 15.3094 61.4146 16.0441 60.1483 17.3312C58.8821 18.6183 58.1721 20.3541 58.1721 22.1627C58.1721 23.9713 58.8821 25.7071 60.1483 26.9941C61.4146 28.2812 63.1351 29.0159 64.9373 29.0392C65.9493 29.0503 66.9493 28.8174 67.8529 28.36C68.7566 27.9027 69.5376 27.2342 70.1303 26.411V28.5126H71.7895V15.8127H70.1303V17.9098ZM70.1461 22.1302C70.1461 25.0747 67.8171 27.4698 64.9532 27.4698C62.0892 27.4698 59.7602 25.0747 59.7602 22.1302C59.7602 19.1858 62.0892 16.7919 64.9532 16.7919C67.8171 16.7919 70.1461 19.187 70.1461 22.1302Z" fill="white"/>
<path d="M87.748 15.2861C86.4594 15.2861 84.8568 15.8434 83.9445 17.3571C83.2758 16.0322 81.9884 15.2861 80.3269 15.2861C79.1357 15.2861 78.0421 15.8343 77.2669 16.7907V15.8479H75.6042V28.5126H77.2623V20.6154C77.2623 18.1737 78.8003 16.8556 80.2475 16.8556C81.1021 16.8556 83.0888 17.1581 83.0888 19.9615V28.5286H84.748V20.1855C84.748 17.6949 86.2486 16.8078 87.6528 16.8078C90.3479 16.8078 90.5575 19.1847 90.5575 19.9137V28.4808H92.2167V19.9296H92.2326V19.9137C92.2247 16.4985 89.8129 15.2861 87.748 15.2861Z" fill="white"/>
<path d="M102.782 15.2543C101.77 15.243 100.769 15.4758 99.8655 15.9332C98.9616 16.3906 98.1804 17.0591 97.5877 17.8826V7.71191H95.9285V28.4171H97.5877V26.32C98.1797 27.1425 98.9601 27.8102 99.863 28.2668C100.766 28.7234 101.765 28.9556 102.776 28.9437H102.896C104.656 28.9452 106.346 28.2477 107.595 27.0035C108.243 26.3696 108.757 25.6116 109.108 24.7745C109.458 23.9374 109.637 23.0382 109.635 22.1303C109.633 20.3071 108.91 18.5592 107.625 17.2702C106.341 15.9811 104.599 15.2561 102.782 15.2543ZM107.975 22.1303C107.975 25.0747 105.645 27.4698 102.782 27.4698C99.919 27.4698 97.5877 25.0747 97.5877 22.1303C97.5877 19.1859 99.9178 16.7919 102.782 16.7919C105.646 16.7919 107.975 19.187 107.975 22.1303Z" fill="white"/>
<path d="M114.179 7.75977H112.52V28.465H114.179V7.75977Z" fill="white"/>
<path d="M123.902 15.2549C122.099 15.2781 120.379 16.0129 119.113 17.2999C117.846 18.587 117.136 20.3228 117.136 22.1314C117.136 23.94 117.846 25.6758 119.113 26.9629C120.379 28.25 122.099 28.9847 123.902 29.0079C125.101 29.0157 126.282 28.704 127.322 28.1046C128.363 27.5052 129.226 26.6396 129.825 25.5961L129.97 25.3471L128.584 24.5225L128.438 24.7784C127.483 26.4582 125.747 27.5079 123.905 27.5079C121.317 27.5079 119.113 25.5108 118.76 22.9053H130.678L130.721 22.6676C130.75 22.4922 130.762 22.3143 130.757 22.1365C130.757 20.312 130.034 18.5623 128.749 17.2719C127.463 15.9816 125.72 15.2561 123.902 15.2549V15.2549ZM118.773 21.3791C119.139 18.7827 121.343 16.7925 123.918 16.7925C126.493 16.7925 128.695 18.7827 129.061 21.3791H118.773Z" fill="white"/>
</svg>
