<svg width="32" height="32" viewBox="0 0 32 32" fill="none" xmlns="http://www.w3.org/2000/svg">
<circle cx="16" cy="16" r="15.5" stroke="#F7F7F8"/>
<path d="M15.997 11.3721C14.7707 11.3721 13.5946 11.8592 12.7274 12.7264C11.8602 13.5936 11.373 14.7697 11.373 15.9961C11.373 17.2224 11.8602 18.3986 12.7274 19.2657C13.5946 20.1329 14.7707 20.6201 15.997 20.6201C17.2234 20.6201 18.3995 20.1329 19.2667 19.2657C20.1339 18.3986 20.621 17.2224 20.621 15.9961C20.621 14.7697 20.1339 13.5936 19.2667 12.7264C18.3995 11.8592 17.2234 11.3721 15.997 11.3721V11.3721ZM15.997 18.9991C15.2003 18.9991 14.4363 18.6826 13.8729 18.1192C13.3095 17.5559 12.993 16.7918 12.993 15.9951C12.993 15.1984 13.3095 14.4343 13.8729 13.8709C14.4363 13.3076 15.2003 12.9911 15.997 12.9911C16.7938 12.9911 17.5578 13.3076 18.1212 13.8709C18.6846 14.4343 19.001 15.1984 19.001 15.9951C19.001 16.7918 18.6846 17.5559 18.1212 18.1192C17.5578 18.6826 16.7938 18.9991 15.997 18.9991V18.9991Z" fill="#F7F7F8"/>
<path d="M20.8041 12.28C21.3994 12.28 21.8821 11.7974 21.8821 11.202C21.8821 10.6067 21.3994 10.124 20.8041 10.124C20.2087 10.124 19.7261 10.6067 19.7261 11.202C19.7261 11.7974 20.2087 12.28 20.8041 12.28Z" fill="#F7F7F8"/>
<path d="M24.531 10.106C24.2995 9.50818 23.9457 8.96528 23.4923 8.51206C23.0389 8.05883 22.4959 7.70527 21.898 7.474C21.1983 7.21136 20.4592 7.06934 19.712 7.054C18.749 7.012 18.444 7 16.002 7C13.56 7 13.247 7 12.292 7.054C11.5454 7.06856 10.8068 7.2106 10.108 7.474C9.50994 7.705 8.96676 8.05847 8.51333 8.51173C8.0599 8.96499 7.70623 9.50802 7.475 10.106C7.2123 10.8056 7.07061 11.5448 7.056 12.292C7.013 13.254 7 13.559 7 16.002C7 18.444 7 18.755 7.056 19.712C7.071 20.46 7.212 21.198 7.475 21.899C7.70688 22.4968 8.0609 23.0396 8.51444 23.4928C8.96798 23.946 9.51106 24.2996 10.109 24.531C10.8064 24.8042 11.5454 24.9564 12.294 24.981C13.257 25.023 13.562 25.036 16.004 25.036C18.446 25.036 18.759 25.036 19.714 24.981C20.4611 24.9658 21.2002 24.8241 21.9 24.562C22.4978 24.3302 23.0406 23.9763 23.494 23.523C23.9473 23.0696 24.3012 22.5268 24.533 21.929C24.796 21.229 24.937 20.491 24.952 19.743C24.995 18.781 25.008 18.476 25.008 16.033C25.008 13.59 25.008 13.28 24.952 12.323C24.9404 11.5653 24.7979 10.8152 24.531 10.106V10.106ZM23.313 19.638C23.3066 20.2143 23.2014 20.7852 23.002 21.326C22.8518 21.7149 22.6219 22.068 22.3271 22.3627C22.0322 22.6574 21.679 22.8871 21.29 23.037C20.7552 23.2354 20.1904 23.3406 19.62 23.348C18.67 23.392 18.402 23.403 15.966 23.403C13.528 23.403 13.279 23.403 12.311 23.348C11.7409 23.341 11.1763 23.2358 10.642 23.037C10.2517 22.888 9.897 22.6587 9.60089 22.364C9.30478 22.0692 9.07384 21.7156 8.923 21.326C8.72645 20.791 8.62131 20.2268 8.612 19.657C8.569 18.707 8.559 18.439 8.559 16.003C8.559 13.566 8.559 13.317 8.612 12.348C8.61846 11.772 8.72366 11.2014 8.923 10.661C9.228 9.872 9.853 9.251 10.642 8.949C11.1766 8.75114 11.741 8.64596 12.311 8.638C13.262 8.595 13.529 8.583 15.966 8.583C18.403 8.583 18.653 8.583 19.62 8.638C20.1904 8.64486 20.7554 8.75007 21.29 8.949C21.6789 9.09927 22.0321 9.3292 22.327 9.62403C22.6218 9.91886 22.8517 10.2721 23.002 10.661C23.1986 11.1959 23.3037 11.7602 23.313 12.33C23.356 13.281 23.367 13.548 23.367 15.985C23.367 18.421 23.367 18.683 23.324 19.639H23.313V19.638Z" fill="#F7F7F8"/>
</svg>
