<svg width="32" height="32" viewBox="0 0 32 32" fill="none" xmlns="http://www.w3.org/2000/svg">
<circle cx="16" cy="16" r="15.5" stroke="#F7F7F8"/>
<path fill-rule="evenodd" clip-rule="evenodd" d="M12.338 13.9032V22H9.6584V13.9032H12.338ZM12.5142 11.399C12.5142 12.176 11.9326 12.7977 10.9982 12.7977H10.9981H10.9807C10.0815 12.7977 9.5 12.176 9.5 11.399C9.5 10.6045 10.0993 10 11.0159 10C11.9326 10 12.4968 10.6045 12.5142 11.399ZM16.5002 22H13.8208C13.8208 22 13.8559 14.663 13.8208 13.9032H16.5003V15.0496C16.4942 15.0589 16.4883 15.0682 16.4824 15.0774H16.5003V15.0496C16.8564 14.4978 17.4937 13.7132 18.9151 13.7132C20.6781 13.7132 22 14.8704 22 17.3574V22H19.3207V17.6684C19.3207 16.5799 18.9328 15.8374 17.9632 15.8374C17.223 15.8374 16.7821 16.3382 16.5884 16.8217C16.5176 16.9947 16.5002 17.2364 16.5002 17.4784V22Z" fill="#F7F7F8"/>
</svg>
